<?xml version="1.0" encoding="UTF-8" standalone="no"?><!DOCTYPE svg PUBLIC "-//W3C//DTD SVG 1.1//EN" "http://www.w3.org/Graphics/SVG/1.1/DTD/svg11.dtd"><svg fill="#FFFFFF" xmlns="http://www.w3.org/2000/svg" xmlns:xlink="http://www.w3.org/1999/xlink" viewBox="0 0 50 50" width="50px" height="50px"><rect  x="0" y="0" width="50" height="50" style="fill:none;"/><path d="M40.084,22c0.709,0.012 1.415,0.109 2.091,0.33c0.546,0.179 1.067,0.437 1.535,0.773c0.529,0.381 0.985,0.861 1.339,1.409c0.248,0.384 0.446,0.8 0.594,1.233c0.24,0.699 0.345,1.433 0.357,2.17c0.017,3.418 0.052,6.836 -0.002,10.254c-0.019,0.733 -0.132,1.463 -0.379,2.156c-0.153,0.43 -0.356,0.842 -0.609,1.222c-0.361,0.544 -0.823,1.017 -1.358,1.391c-0.452,0.316 -0.953,0.56 -1.477,0.732c-0.649,0.212 -1.327,0.31 -2.007,0.328c-10.111,0.158 -20.226,0.191 -30.336,0c-0.609,-0.019 -1.213,-0.116 -1.792,-0.312c-0.402,-0.136 -0.789,-0.318 -1.15,-0.541c-0.293,-0.181 -0.568,-0.389 -0.822,-0.62c-0.88,-0.8 -1.487,-1.864 -1.802,-3.005c-0.166,-0.604 -0.248,-1.226 -0.264,-1.851c-0.051,-3.279 -0.052,-6.559 0,-9.838c0.019,-0.733 0.132,-1.463 0.379,-2.156c0.153,-0.43 0.356,-0.842 0.609,-1.222c0.361,-0.544 0.823,-1.017 1.358,-1.391c0.452,-0.316 0.953,-0.56 1.477,-0.732c0.649,-0.212 1.327,-0.31 2.007,-0.328c10.083,-0.158 20.168,-0.054 30.252,-0.002Zm-30.147,2c-0.42,0.007 -0.838,0.052 -1.245,0.159c-0.621,0.163 -1.206,0.469 -1.657,0.931c-0.161,0.166 -0.305,0.348 -0.427,0.544c-0.167,0.266 -0.296,0.555 -0.391,0.854c-0.148,0.469 -0.209,0.958 -0.217,1.448c-0.017,3.231 -0.049,6.461 0.001,9.691c0.012,0.441 0.067,0.88 0.179,1.307c0.21,0.798 0.619,1.552 1.233,2.111c0.164,0.149 0.341,0.283 0.529,0.399c0.232,0.144 0.481,0.26 0.739,0.348c0.407,0.137 0.832,0.2 1.26,0.208l0.065,0l1.994,0l0,-12l-2,0l0,-6c-0.021,0 -0.042,0 -0.063,0Zm8.063,18c0.587,0 2.349,0.001 1.762,0l-0.125,-0.004c-0.189,-0.015 -0.374,-0.039 -0.558,-0.084c-0.367,-0.091 -0.707,-0.249 -1.029,-0.444l-0.05,-0.032c0,0.188 0,0.376 0,0.564Zm1.986,0c0.001,0 0.001,0 0,0Zm-9.981,-18l-0.001,0l9.996,0l0,3l4,0l0,-3l6,0l0,2.942c0.095,0.003 0.094,0.004 0.189,0.009c0.215,0.017 0.427,0.045 0.636,0.092c0.433,0.097 0.849,0.267 1.222,0.508c0.222,0.142 0.422,0.309 0.61,0.493l0.05,0.05l0.088,-0.073l0.112,-0.086c0.184,-0.131 0.372,-0.251 0.574,-0.353c0.692,-0.352 1.468,-0.519 2.239,-0.567c1.035,-0.065 2.115,0.054 3.036,0.558c0.227,0.124 0.441,0.27 0.64,0.434c0.255,0.21 0.486,0.451 0.687,0.713c0.38,0.495 0.638,1.071 0.774,1.679c0.101,0.45 0.135,0.91 0.142,1.371c0.01,1.743 0.001,3.487 0.001,5.23l-0.005,0c-0.003,0.128 -0.008,0.256 -0.015,0.384c-0.025,0.4 -0.07,0.799 -0.166,1.189c-0.136,0.55 -0.37,1.076 -0.719,1.525c-0.085,0.108 -0.176,0.21 -0.271,0.309c-0.117,0.123 -0.239,0.241 -0.37,0.351c-0.345,0.288 -0.738,0.518 -1.155,0.686c-0.557,0.225 -1.152,0.341 -1.75,0.381c-1.016,0.068 -2.055,-0.067 -2.968,-0.539c-0.31,-0.16 -0.595,-0.358 -0.864,-0.582l-0.021,-0.019c-0.057,0.061 -0.114,0.121 -0.173,0.18c-0.066,0.064 -0.132,0.126 -0.2,0.187c-0.157,0.137 -0.32,0.266 -0.495,0.38c-0.324,0.212 -0.681,0.376 -1.057,0.471c-0.242,0.061 -0.486,0.088 -0.734,0.097l-0.03,0c3.373,0 6.746,0.052 10.119,-0.001c0.101,-0.003 0.203,-0.008 0.304,-0.015c0.447,-0.035 0.889,-0.12 1.308,-0.281c0.271,-0.103 0.53,-0.238 0.768,-0.404c0.176,-0.123 0.34,-0.264 0.489,-0.42c0.439,-0.462 0.723,-1.049 0.87,-1.667c0.09,-0.376 0.128,-0.762 0.135,-1.148c0.017,-3.397 0.053,-6.794 -0.001,-10.191c-0.013,-0.485 -0.079,-0.97 -0.232,-1.432c-0.097,-0.297 -0.229,-0.582 -0.398,-0.844c-0.118,-0.182 -0.253,-0.352 -0.404,-0.507c-0.439,-0.449 -1.004,-0.752 -1.607,-0.918c-0.402,-0.11 -0.816,-0.16 -1.232,-0.171c-10.039,-0.155 -20.081,-0.001 -30.121,-0.001Zm7.995,5c0,3.019 -0.04,6.039 0.001,9.058c0.002,0.054 0.006,0.108 0.011,0.162c0.018,0.14 0.048,0.276 0.1,0.406c0.072,0.181 0.181,0.342 0.3,0.496c0.054,0.071 0.108,0.142 0.168,0.208c0.129,0.144 0.278,0.272 0.437,0.382c0.23,0.157 0.491,0.28 0.774,0.288c0.125,0 0.251,0 0.376,-0.004c0.17,-0.008 0.338,-0.025 0.502,-0.07c0.152,-0.042 0.288,-0.11 0.427,-0.182c0.172,-0.089 0.338,-0.186 0.486,-0.311c0.154,-0.13 0.287,-0.281 0.418,-0.433l0,1l2,0l0,-11l-2,0l0,8c-0.017,0.024 -0.017,0.024 -0.032,0.049c-0.016,0.031 -0.03,0.062 -0.044,0.094c-0.042,0.105 -0.079,0.212 -0.124,0.316c-0.02,0.042 -0.041,0.084 -0.063,0.125c-0.064,0.107 -0.139,0.203 -0.242,0.275c-0.114,0.079 -0.249,0.121 -0.386,0.135c-0.199,0.02 -0.4,-0.013 -0.574,-0.115c-0.207,-0.122 -0.358,-0.325 -0.45,-0.544c-0.043,-0.099 -0.074,-0.204 -0.084,-0.312l-0.001,-0.023l0,-8c-0.667,0 -1.333,0 -2,0Zm8,-3l0,14l2,0l0,-1c0.064,0.073 0.128,0.146 0.195,0.217c0.168,0.172 0.349,0.33 0.556,0.456c0.293,0.178 0.625,0.283 0.966,0.315c0.169,0.016 0.343,0.022 0.51,-0.012c0.382,-0.079 0.701,-0.333 0.964,-0.609c0.325,-0.342 0.605,-0.731 0.727,-1.193c0.052,-0.198 0.075,-0.401 0.081,-0.605c0.022,-2.05 0.021,-4.1 0,-6.149c-0.006,-0.219 -0.027,-0.437 -0.073,-0.652c-0.076,-0.352 -0.218,-0.687 -0.421,-0.984c-0.098,-0.145 -0.208,-0.282 -0.338,-0.398c-0.128,-0.113 -0.272,-0.206 -0.428,-0.276c-0.147,-0.065 -0.302,-0.11 -0.461,-0.137c-0.213,-0.036 -0.434,-0.045 -0.648,-0.016c-0.211,0.028 -0.415,0.092 -0.609,0.179c-0.414,0.187 -0.772,0.483 -1.021,0.864l0,-4c-0.667,0 -1.333,0 -2,0Zm-14,0l0,2l2,0l0,12l2,0l0,-12l2,0l0,-2c-2,0 -4,0 -6,0Zm24.109,3.001c-0.392,0.009 -0.785,0.05 -1.164,0.153c-0.215,0.059 -0.425,0.137 -0.62,0.244c-0.117,0.064 -0.229,0.138 -0.33,0.226c-0.109,0.095 -0.206,0.204 -0.298,0.315c-0.283,0.34 -0.496,0.732 -0.603,1.161c-0.057,0.23 -0.082,0.464 -0.09,0.7c-0.018,1.629 -0.014,3.258 0,4.887c0.008,0.323 0.039,0.644 0.115,0.959c0.124,0.517 0.369,1.009 0.743,1.391c0.118,0.121 0.249,0.23 0.389,0.325c0.682,0.46 1.546,0.535 2.345,0.452c0.61,-0.063 1.23,-0.253 1.682,-0.686c0.135,-0.129 0.259,-0.269 0.355,-0.43c0.166,-0.278 0.251,-0.596 0.299,-0.914c0.06,-0.394 0.067,-0.794 0.068,-1.192c0,-0.197 0,-0.395 0,-0.592l-2,0c0,0.24 0.002,0.48 -0.003,0.719c-0.003,0.101 -0.008,0.201 -0.015,0.301c-0.013,0.148 -0.029,0.297 -0.065,0.442c-0.021,0.087 -0.049,0.179 -0.104,0.253c-0.025,0.034 -0.053,0.067 -0.086,0.095c-0.157,0.136 -0.381,0.172 -0.582,0.185c-0.046,0.003 -0.099,0.005 -0.145,0.005c-0.24,0.002 -0.511,-0.038 -0.692,-0.212c-0.114,-0.11 -0.181,-0.267 -0.222,-0.417c-0.074,-0.268 -0.084,-0.549 -0.086,-0.825l0,-1.546l4,0c0,-1.1 0.016,-2.199 -0.002,-3.299c-0.011,-0.381 -0.044,-0.767 -0.166,-1.131c-0.212,-0.632 -0.715,-1.151 -1.341,-1.38c-0.386,-0.142 -0.797,-0.181 -1.205,-0.189c-0.089,-0.001 -0.088,-0.001 -0.177,0Z" style="fill:none;"/><path d="M40,22c3.592,0 6,2.382 6,6l0,10c0,3.618 -2.408,6 -6,6l-30,0c-3.592,0 -6,-2.882 -6,-6.5l0,-9.5c0,-3.618 2.408,-6 6,-6l30,0Zm-20,7l-2,0l0,9c0,0.625 0.268,0.935 0.5,1.235c0.257,0.328 0.807,0.765 1.291,0.765c0.394,0 0.813,0.015 1.23,-0.218c0.416,-0.208 0.609,-0.344 0.979,-0.782l0,1l2,0l0,-11l-2,0l0,8c-0.181,0.233 -0.187,0.992 -1,1c-0.732,0.007 -1,-0.77 -1,-1l0,-8Zm8,-3l-2,0l0,14l2,0l0,-1c0.386,0.451 0.949,1.011 2,1c0.622,-0.006 1.103,-0.508 1.424,-0.9c0.325,-0.398 0.576,-0.859 0.576,-1.6l0,-6c0,-0.863 -0.273,-1.448 -0.622,-1.889c-0.346,-0.441 -0.856,-0.671 -1.505,-0.671c-0.325,0 -0.649,0.09 -0.973,0.255c-0.325,0.162 -0.67,0.445 -0.9,0.805l0,-4Zm-10,0l-6,0l0,2l2,0l0,12l2,0l0,-12l2,0l0,-2Zm19,10l0,0.5c0,0.603 -0.059,1.066 -0.199,1.231c-0.138,0.184 -0.395,0.265 -0.801,0.269c-0.367,0.004 -0.646,-0.098 -0.784,-0.328c-0.141,-0.209 -0.216,-0.569 -0.216,-1.126l0,-1.546l4,0l0,-3.116c0,-0.998 -0.166,-1.617 -0.68,-2.15c-0.505,-0.533 -1.171,-0.734 -2.122,-0.734c-0.949,0 -1.828,0.232 -2.295,0.711c-0.583,0.599 -0.9,1.269 -0.9,2.173l0,4.708c0,1.023 0.278,1.813 0.808,2.392c0.535,0.579 1.276,0.858 2.227,0.858c1.038,0 1.83,-0.258 2.338,-0.815c0.536,-0.533 0.624,-1.342 0.624,-2.435l0,-0.592l-2,0Zm-7,-4c0,-1.001 -0.448,-1.5 -1,-1.5c-0.552,0 -0.991,0.497 -1,1l0,6c0.009,0.288 0.448,0.5 1,0.5c0.552,0 1,-0.425 1,-0.977l0,-5.023Zm7,1l-2,0l0,-1c0.009,-0.537 0.448,-1 1,-1c0.552,0 1,0.385 1,1l0,1Z"/><path d="M19,5l-2,6l-2,-6l-2,0l3,9l0,6l2,0l0,-6l3,-9l-2,0Zm6,12c0,0.969 -0.676,1 -1,1c-0.3,0 -1,-0.013 -1,-1l0,-5c0,-0.815 0.433,-1 1,-1c0.3,0 1,-0.002 1,1l0,5Zm1.24,-7.278c-0.627,-0.576 -1.27,-0.722 -2.24,-0.722c-1.068,0 -1.591,0.168 -2.242,0.701c-0.625,0.53 -0.799,0.937 -0.758,2.299l0,5c0,0.996 0.162,1.652 0.765,2.236c0.625,0.579 1.216,0.764 2.235,0.764c1.065,0 1.648,-0.184 2.248,-0.765c0.627,-0.558 0.752,-1.237 0.752,-2.235l0,-5c0,-0.882 -0.157,-1.721 -0.76,-2.278Zm6.76,-0.722l0,8c-0.011,0.683 -0.816,1 -1,1c-0.208,0 -1,-0.042 -1,-1l0,-8l-2,0l0,9c0,0.972 0.98,2 2,2c1.02,0 1.559,-0.513 2,-1l0,1l2,0l0,-11l-2,0Z" style="fill-rule:nonzero;"/></svg>